<mxfile host="app.diagrams.net" modified="2023-10-10T17:26:09.632Z" agent="Mozilla/5.0 (Macintosh; Intel Mac OS X 10_15_7) AppleWebKit/537.36 (KHTML, like Gecko) Chrome/117.0.0.0 Safari/537.36" etag="odq_hqF3rjkCoJLOnTKu" version="22.0.0" type="github">
  <diagram name="Page-1" id="QopFrMDax7zHomuMzpzw">
    <mxGraphModel dx="1056" dy="761" grid="1" gridSize="10" guides="1" tooltips="1" connect="1" arrows="1" fold="1" page="1" pageScale="1" pageWidth="827" pageHeight="1169" math="0" shadow="0">
      <root>
        <mxCell id="0" />
        <mxCell id="1" parent="0" />
        <mxCell id="N4pt_-luHo40sd_JOHu3-1" value="&lt;h1&gt;Forms System Design Document&lt;/h1&gt;&lt;p&gt;This document will look at what a system design will look like for a service that delivers forms (like chimp survey or google forms) as it&#39;s api and how an android app would consume this api.&lt;/p&gt;" style="text;html=1;strokeColor=none;fillColor=none;spacing=5;spacingTop=-20;whiteSpace=wrap;overflow=hidden;rounded=0;" vertex="1" parent="1">
          <mxGeometry x="40" y="40" width="390" height="120" as="geometry" />
        </mxCell>
      </root>
    </mxGraphModel>
  </diagram>
</mxfile>
